<svg width="95" height="71" viewBox="0 0 95 71" fill="none" xmlns="http://www.w3.org/2000/svg">
<path fill-rule="evenodd" clip-rule="evenodd" d="M48.1516 0.0111396C62.9974 0.305325 74.7365 7.68914 83.9561 16.7547C93.1243 25.7697 98.0632 37.3418 92.9263 46.1758C87.7895 55.0098 74.1256 50.9586 60.342 56.0084C48.1808 60.4638 33.2012 73.6412 19.6308 70.5296C6.06039 67.4179 1.83655 57.8521 0.310143 46.6367C-1.2999 34.8068 3.45438 24.1265 12.3473 14.9905C21.5394 5.5472 32.9393 -0.29031 48.1516 0.0111396Z" fill="#223B59"/>
<path d="M13.392 29.08C13.392 31.544 14.918 33.112 16.836 33.112C17.984 33.112 18.81 32.594 19.244 31.88V33H21.638V22.64H19.244V26.266C18.768 25.552 17.872 25.076 16.836 25.076C14.918 25.076 13.392 26.616 13.392 29.08ZM19.244 29.094C19.244 30.34 18.446 31.026 17.536 31.026C16.64 31.026 15.828 30.326 15.828 29.08C15.828 27.834 16.64 27.162 17.536 27.162C18.446 27.162 19.244 27.848 19.244 29.094ZM23.37 33H25.764V25.188H23.37V33ZM24.574 24.376C25.414 24.376 25.988 23.802 25.988 23.088C25.988 22.36 25.414 21.786 24.574 21.786C23.72 21.786 23.146 22.36 23.146 23.088C23.146 23.802 23.72 24.376 24.574 24.376ZM27.0229 29.08C27.0229 31.544 28.5489 33.112 30.4529 33.112C31.6149 33.112 32.4409 32.58 32.8749 31.894V33H35.2689V25.188H32.8749V26.294C32.4549 25.608 31.6289 25.076 30.4669 25.076C28.5489 25.076 27.0229 26.616 27.0229 29.08ZM32.8749 29.094C32.8749 30.34 32.0769 31.026 31.1669 31.026C30.2709 31.026 29.4589 30.326 29.4589 29.08C29.4589 27.834 30.2709 27.162 31.1669 27.162C32.0769 27.162 32.8749 27.848 32.8749 29.094ZM39.3948 26.294V22.64H37.0008V33H39.3948V31.908C39.8288 32.594 40.6548 33.112 41.8028 33.112C43.7208 33.112 45.2468 31.544 45.2468 29.08C45.2468 26.616 43.7348 25.076 41.8028 25.076C40.6828 25.076 39.8288 25.594 39.3948 26.294ZM42.8108 29.08C42.8108 30.326 41.9988 31.026 41.0888 31.026C40.1928 31.026 39.3808 30.34 39.3808 29.094C39.3808 27.848 40.1928 27.162 41.0888 27.162C41.9988 27.162 42.8108 27.834 42.8108 29.08ZM49.9468 26.994C50.7448 26.994 51.4168 27.484 51.4168 28.338H48.4208C48.5608 27.47 49.1628 26.994 49.9468 26.994ZM53.6848 30.41H51.1368C50.9408 30.83 50.5628 31.166 49.8908 31.166C49.1208 31.166 48.4908 30.69 48.4068 29.668H53.8248C53.8528 29.43 53.8668 29.192 53.8668 28.968C53.8668 26.588 52.2568 25.076 49.9748 25.076C47.6508 25.076 46.0268 26.616 46.0268 29.094C46.0268 31.572 47.6788 33.112 49.9748 33.112C51.9208 33.112 53.3068 31.936 53.6848 30.41ZM55.5077 30.284C55.5077 32.314 56.6417 33 58.2657 33H59.4837V30.97H58.6297C58.0977 30.97 57.9017 30.774 57.9017 30.312V27.176H59.4697V25.188H57.9017V23.284H55.5077V25.188H54.5557V27.176H55.5077V30.284ZM64.2612 26.994C65.0592 26.994 65.7312 27.484 65.7312 28.338H62.7352C62.8752 27.47 63.4772 26.994 64.2612 26.994ZM67.9992 30.41H65.4512C65.2552 30.83 64.8772 31.166 64.2052 31.166C63.4352 31.166 62.8052 30.69 62.7212 29.668H68.1392C68.1672 29.43 68.1812 29.192 68.1812 28.968C68.1812 26.588 66.5712 25.076 64.2892 25.076C61.9652 25.076 60.3412 26.616 60.3412 29.094C60.3412 31.572 61.9932 33.112 64.2892 33.112C66.2352 33.112 67.6212 31.936 67.9992 30.41ZM75.7862 30.732C75.7442 27.82 71.5162 28.702 71.5162 27.456C71.5162 27.078 71.8242 26.854 72.3842 26.854C73.0562 26.854 73.4622 27.204 73.5322 27.736H75.7442C75.5902 26.196 74.4702 25.076 72.4542 25.076C70.4102 25.076 69.2762 26.168 69.2762 27.498C69.2762 30.368 73.5322 29.458 73.5322 30.718C73.5322 31.068 73.2102 31.348 72.5942 31.348C71.9362 31.348 71.4462 30.984 71.3902 30.438H69.0242C69.1362 31.95 70.5362 33.112 72.6222 33.112C74.5822 33.112 75.7862 32.09 75.7862 30.732Z" fill="white"/>
<path d="M79.7848 31.824C79.7848 31.082 79.2108 30.508 78.3708 30.508C77.5168 30.508 76.9428 31.082 76.9428 31.824C76.9428 32.538 77.5168 33.112 78.3708 33.112C79.2108 33.112 79.7848 32.538 79.7848 31.824Z" fill="#F4B251"/>
<path d="M16.262 40.294V39.188H13.868V50.724H16.262V45.908C16.696 46.566 17.522 47.112 18.67 47.112C20.588 47.112 22.114 45.544 22.114 43.08C22.114 40.616 20.588 39.076 18.67 39.076C17.522 39.076 16.696 39.608 16.262 40.294ZM19.678 43.08C19.678 44.326 18.866 45.026 17.956 45.026C17.06 45.026 16.248 44.34 16.248 43.094C16.248 41.848 17.06 41.162 17.956 41.162C18.866 41.162 19.678 41.834 19.678 43.08ZM22.894 43.08C22.894 45.544 24.42 47.112 26.324 47.112C27.486 47.112 28.312 46.58 28.746 45.894V47H31.14V39.188H28.746V40.294C28.326 39.608 27.5 39.076 26.338 39.076C24.42 39.076 22.894 40.616 22.894 43.08ZM28.746 43.094C28.746 44.34 27.948 45.026 27.038 45.026C26.142 45.026 25.33 44.326 25.33 43.08C25.33 41.834 26.142 41.162 27.038 41.162C27.948 41.162 28.746 41.848 28.746 43.094ZM32.3959 43.08C32.3959 45.544 33.9219 47.112 35.8399 47.112C36.9879 47.112 37.8139 46.566 38.2479 45.88V46.986C38.2479 48.302 37.5339 48.778 36.6239 48.778C35.7979 48.778 35.2099 48.4 35.0559 47.812H32.6899C32.8999 49.674 34.4119 50.85 36.7359 50.85C39.4379 50.85 40.6419 49.072 40.6419 46.986V39.188H38.2479V40.294C37.8279 39.594 36.9879 39.076 35.8399 39.076C33.9219 39.076 32.3959 40.616 32.3959 43.08ZM38.2479 43.094C38.2479 44.34 37.4499 45.026 36.5399 45.026C35.6439 45.026 34.8319 44.326 34.8319 43.08C34.8319 41.834 35.6439 41.162 36.5399 41.162C37.4499 41.162 38.2479 41.848 38.2479 43.094ZM45.8179 40.994C46.6159 40.994 47.2879 41.484 47.2879 42.338H44.2919C44.4319 41.47 45.0339 40.994 45.8179 40.994ZM49.5559 44.41H47.0079C46.8119 44.83 46.4339 45.166 45.7619 45.166C44.9919 45.166 44.3619 44.69 44.2779 43.668H49.6959C49.7239 43.43 49.7379 43.192 49.7379 42.968C49.7379 40.588 48.1279 39.076 45.8459 39.076C43.5219 39.076 41.8979 40.616 41.8979 43.094C41.8979 45.572 43.5499 47.112 45.8459 47.112C47.7919 47.112 49.1779 45.936 49.5559 44.41Z" fill="#B7E2EA"/>
</svg>
